<svg width="337" height="96" viewBox="0 0 337 96" fill="none" xmlns="http://www.w3.org/2000/svg">
<g clip-path="url(#clip0_3_15)">
<g clip-path="url(#clip1_3_15)">
<path d="M68.25 3H27.75C14.081 3 3 14.081 3 27.75V68.25C3 81.919 14.081 93 27.75 93H68.25C81.919 93 93 81.919 93 68.25V27.75C93 14.081 81.919 3 68.25 3Z" fill="url(#paint0_linear_3_15)"/>
<path d="M34.125 29.625V66.375" stroke="white" stroke-width="8.625" stroke-linecap="round"/>
<path d="M40.125 49.125L61.875 31.5" stroke="white" stroke-width="8.625" stroke-linecap="round"/>
<path d="M40.125 49.125L64.875 68.625" stroke="white" stroke-width="8.625" stroke-linecap="round"/>
<path d="M66.75 31.875C69.0282 31.875 70.875 30.0282 70.875 27.75C70.875 25.4718 69.0282 23.625 66.75 23.625C64.4718 23.625 62.625 25.4718 62.625 27.75C62.625 30.0282 64.4718 31.875 66.75 31.875Z" fill="#FACC15"/>
<g clip-path="url(#clip2_3_15)">
<path d="M117.287 55V17.1818H125.283V33.8565H125.781L139.391 17.1818H148.974L134.94 34.1151L149.141 55H139.575L129.216 39.4517L125.283 44.2528V55H117.287ZM160.039 55.5355C158.229 55.5355 156.616 55.2216 155.201 54.5938C153.785 53.9536 152.665 53.0118 151.84 51.7685C151.027 50.5128 150.621 48.9493 150.621 47.0781C150.621 45.5024 150.911 44.179 151.489 43.108C152.068 42.0369 152.856 41.1752 153.853 40.5227C154.85 39.8703 155.982 39.3778 157.25 39.0455C158.531 38.7131 159.873 38.4792 161.276 38.3438C162.926 38.1714 164.255 38.0114 165.265 37.8636C166.274 37.7036 167.007 37.4697 167.462 37.1619C167.918 36.8542 168.145 36.3987 168.145 35.7955V35.6847C168.145 34.5152 167.776 33.6103 167.037 32.9702C166.311 32.33 165.277 32.0099 163.935 32.0099C162.519 32.0099 161.393 32.3239 160.556 32.9517C159.719 33.5672 159.165 34.3428 158.894 35.2784L151.618 34.6875C151.988 32.964 152.714 31.4744 153.797 30.2188C154.881 28.9508 156.278 27.9782 157.989 27.3011C159.713 26.6117 161.707 26.267 163.972 26.267C165.548 26.267 167.056 26.4517 168.496 26.821C169.949 27.1903 171.235 27.7628 172.356 28.5384C173.488 29.3139 174.381 30.3111 175.033 31.5298C175.686 32.7363 176.012 34.1828 176.012 35.8693V55H168.552V51.0668H168.33C167.875 51.9531 167.265 52.7348 166.502 53.4119C165.739 54.0767 164.822 54.5999 163.75 54.9815C162.679 55.3509 161.442 55.5355 160.039 55.5355ZM162.292 50.1065C163.449 50.1065 164.471 49.8788 165.357 49.4233C166.243 48.9555 166.939 48.3277 167.444 47.5398C167.948 46.7519 168.201 45.8594 168.201 44.8622V41.8523C167.955 42.0123 167.616 42.16 167.185 42.2955C166.767 42.4186 166.293 42.5355 165.763 42.6463C165.234 42.7448 164.705 42.8371 164.175 42.9233C163.646 42.9972 163.166 43.0649 162.735 43.1264C161.812 43.2618 161.005 43.4773 160.316 43.7727C159.626 44.0682 159.091 44.4683 158.709 44.973C158.328 45.4654 158.137 46.081 158.137 46.8196C158.137 47.8906 158.525 48.7093 159.3 49.2756C160.088 49.8295 161.085 50.1065 162.292 50.1065ZM204.674 34.7244L197.473 35.1676C197.349 34.5521 197.085 33.9981 196.679 33.5057C196.272 33.0009 195.737 32.6009 195.072 32.3054C194.42 31.9976 193.638 31.8438 192.727 31.8438C191.508 31.8438 190.48 32.1023 189.643 32.6193C188.806 33.1241 188.387 33.8011 188.387 34.6506C188.387 35.3277 188.658 35.9001 189.2 36.3679C189.741 36.8357 190.671 37.2112 191.988 37.4943L197.122 38.5284C199.879 39.0947 201.935 40.0057 203.289 41.2614C204.643 42.517 205.321 44.1667 205.321 46.2102C205.321 48.0691 204.773 49.7003 203.677 51.1037C202.594 52.5071 201.104 53.6027 199.208 54.3906C197.325 55.1662 195.152 55.554 192.69 55.554C188.935 55.554 185.944 54.7723 183.715 53.2088C181.5 51.633 180.201 49.491 179.819 46.7827L187.556 46.3764C187.79 47.5213 188.357 48.3954 189.255 48.9986C190.154 49.5895 191.305 49.8849 192.708 49.8849C194.087 49.8849 195.195 49.6203 196.032 49.0909C196.882 48.5492 197.313 47.8537 197.325 47.0043C197.313 46.2902 197.011 45.7055 196.42 45.25C195.829 44.7822 194.918 44.4252 193.687 44.179L188.775 43.2003C186.005 42.6463 183.943 41.6861 182.589 40.3196C181.247 38.9531 180.576 37.2112 180.576 35.0938C180.576 33.2718 181.069 31.7022 182.054 30.3849C183.051 29.0677 184.448 28.0521 186.245 27.3381C188.055 26.6241 190.172 26.267 192.598 26.267C196.18 26.267 198.999 27.0241 201.055 28.5384C203.123 30.0526 204.33 32.1146 204.674 34.7244Z" fill="#0D9488"/>
<path d="M222.16 55.554C219.243 55.554 216.731 54.9631 214.626 53.7812C212.533 52.5871 210.921 50.9006 209.788 48.7216C208.655 46.5303 208.089 43.9389 208.089 40.9474C208.089 38.0298 208.655 35.4692 209.788 33.2656C210.921 31.062 212.515 29.3447 214.571 28.1136C216.639 26.8826 219.064 26.267 221.846 26.267C223.717 26.267 225.459 26.5687 227.072 27.1719C228.697 27.7628 230.113 28.6553 231.319 29.8494C232.538 31.0436 233.486 32.5455 234.163 34.3551C234.84 36.1525 235.179 38.2576 235.179 40.6705V42.831H211.228V37.956H227.774C227.774 36.8234 227.528 35.8201 227.035 34.946C226.543 34.072 225.86 33.3887 224.985 32.8963C224.124 32.3916 223.12 32.1392 221.976 32.1392C220.781 32.1392 219.723 32.4162 218.799 32.9702C217.888 33.5118 217.174 34.2443 216.657 35.1676C216.14 36.0786 215.876 37.0942 215.863 38.2145V42.8494C215.863 44.2528 216.122 45.4654 216.639 46.4872C217.168 47.509 217.913 48.2969 218.873 48.8509C219.833 49.4048 220.972 49.6818 222.289 49.6818C223.163 49.6818 223.964 49.5587 224.69 49.3125C225.416 49.0663 226.038 48.697 226.555 48.2045C227.072 47.7121 227.466 47.1089 227.737 46.3949L235.012 46.875C234.643 48.6231 233.886 50.1496 232.741 51.4545C231.609 52.7472 230.144 53.7566 228.346 54.483C226.561 55.197 224.499 55.554 222.16 55.554ZM247.139 38.6023V55H239.272V26.6364H246.769V31.6406H247.102C247.73 29.991 248.782 28.6861 250.259 27.7259C251.737 26.7533 253.528 26.267 255.633 26.267C257.603 26.267 259.32 26.6979 260.785 27.5597C262.25 28.4214 263.389 29.6525 264.201 31.2528C265.014 32.8409 265.42 34.7367 265.42 36.9403V55H257.553V38.3438C257.566 36.608 257.123 35.2538 256.224 34.2812C255.325 33.2964 254.088 32.804 252.512 32.804C251.454 32.804 250.518 33.0317 249.705 33.4872C248.905 33.9427 248.277 34.6075 247.822 35.4815C247.379 36.3433 247.151 37.3835 247.139 38.6023ZM285.666 26.6364V32.5455H268.586V26.6364H285.666ZM272.463 19.8409H280.33V46.2841C280.33 47.0104 280.441 47.5767 280.662 47.983C280.884 48.3769 281.192 48.6539 281.586 48.8139C281.992 48.974 282.46 49.054 282.989 49.054C283.358 49.054 283.728 49.0232 284.097 48.9616C284.466 48.8878 284.749 48.8324 284.946 48.7955L286.184 54.6491C285.79 54.7723 285.236 54.9138 284.522 55.0739C283.808 55.2462 282.94 55.3509 281.918 55.3878C280.022 55.4616 278.36 55.2093 276.932 54.6307C275.516 54.0521 274.415 53.1534 273.627 51.9347C272.839 50.7159 272.451 49.1771 272.463 47.3182V19.8409ZM289.751 55V26.6364H297.377V31.5852H297.673C298.19 29.8248 299.058 28.4953 300.276 27.5966C301.495 26.6856 302.898 26.2301 304.487 26.2301C304.88 26.2301 305.305 26.2547 305.761 26.304C306.216 26.3532 306.616 26.4209 306.961 26.5071V33.4872C306.592 33.3764 306.081 33.2779 305.428 33.1918C304.776 33.1056 304.179 33.0625 303.637 33.0625C302.48 33.0625 301.446 33.3149 300.535 33.8196C299.636 34.312 298.922 35.0014 298.393 35.8878C297.876 36.7741 297.617 37.7959 297.617 38.9531V55H289.751ZM317.264 55.5355C315.454 55.5355 313.841 55.2216 312.426 54.5938C311.01 53.9536 309.89 53.0118 309.065 51.7685C308.252 50.5128 307.846 48.9493 307.846 47.0781C307.846 45.5024 308.135 44.179 308.714 43.108C309.293 42.0369 310.08 41.1752 311.078 40.5227C312.075 39.8703 313.207 39.3778 314.475 39.0455C315.756 38.7131 317.097 38.4792 318.501 38.3438C320.151 38.1714 321.48 38.0114 322.49 37.8636C323.499 37.7036 324.231 37.4697 324.687 37.1619C325.142 36.8542 325.37 36.3987 325.37 35.7955V35.6847C325.37 34.5152 325.001 33.6103 324.262 32.9702C323.536 32.33 322.502 32.0099 321.16 32.0099C319.744 32.0099 318.618 32.3239 317.781 32.9517C316.944 33.5672 316.39 34.3428 316.119 35.2784L308.843 34.6875C309.213 32.964 309.939 31.4744 311.022 30.2188C312.106 28.9508 313.503 27.9782 315.214 27.3011C316.937 26.6117 318.932 26.267 321.197 26.267C322.773 26.267 324.281 26.4517 325.721 26.821C327.174 27.1903 328.46 27.7628 329.58 28.5384C330.713 29.3139 331.606 30.3111 332.258 31.5298C332.91 32.7363 333.237 34.1828 333.237 35.8693V55H325.776V51.0668H325.555C325.099 51.9531 324.49 52.7348 323.727 53.4119C322.963 54.0767 322.046 54.5999 320.975 54.9815C319.904 55.3509 318.667 55.5355 317.264 55.5355ZM319.517 50.1065C320.674 50.1065 321.695 49.8788 322.582 49.4233C323.468 48.9555 324.164 48.3277 324.669 47.5398C325.173 46.7519 325.426 45.8594 325.426 44.8622V41.8523C325.179 42.0123 324.841 42.16 324.41 42.2955C323.991 42.4186 323.517 42.5355 322.988 42.6463C322.459 42.7448 321.929 42.8371 321.4 42.9233C320.871 42.9972 320.391 43.0649 319.96 43.1264C319.036 43.2618 318.23 43.4773 317.541 43.7727C316.851 44.0682 316.316 44.4683 315.934 44.973C315.553 45.4654 315.362 46.081 315.362 46.8196C315.362 47.8906 315.749 48.7093 316.525 49.2756C317.313 49.8295 318.31 50.1065 319.517 50.1065Z" fill="#0F172A"/>
<path d="M115.004 88V77.8182H118.822C119.605 77.8182 120.261 77.964 120.791 78.2557C121.325 78.5473 121.728 78.9484 121.999 79.4588C122.274 79.9659 122.412 80.5426 122.412 81.1889C122.412 81.8419 122.274 82.4219 121.999 82.929C121.724 83.4361 121.318 83.8355 120.781 84.1271C120.244 84.4155 119.583 84.5597 118.798 84.5597H116.267V83.0433H118.549C119.006 83.0433 119.381 82.9638 119.673 82.8047C119.964 82.6456 120.18 82.4268 120.319 82.1484C120.461 81.87 120.533 81.5502 120.533 81.1889C120.533 80.8277 120.461 80.5095 120.319 80.2344C120.18 79.9593 119.963 79.7455 119.668 79.593C119.376 79.4373 119 79.3594 118.539 79.3594H116.849V88H115.004ZM137.032 82.9091C137.032 84.0062 136.827 84.9458 136.416 85.728C136.008 86.5069 135.451 87.1035 134.745 87.5178C134.042 87.9321 133.245 88.1392 132.354 88.1392C131.462 88.1392 130.663 87.9321 129.957 87.5178C129.255 87.1001 128.698 86.5019 128.287 85.723C127.879 84.9408 127.676 84.0028 127.676 82.9091C127.676 81.812 127.879 80.8741 128.287 80.0952C128.698 79.313 129.255 78.7147 129.957 78.3004C130.663 77.8861 131.462 77.679 132.354 77.679C133.245 77.679 134.042 77.8861 134.745 78.3004C135.451 78.7147 136.008 79.313 136.416 80.0952C136.827 80.8741 137.032 81.812 137.032 82.9091ZM135.178 82.9091C135.178 82.1368 135.057 81.4856 134.815 80.9553C134.576 80.4216 134.245 80.0189 133.82 79.7472C133.396 79.4721 132.907 79.3345 132.354 79.3345C131.8 79.3345 131.311 79.4721 130.887 79.7472C130.463 80.0189 130.13 80.4216 129.888 80.9553C129.649 81.4856 129.53 82.1368 129.53 82.9091C129.53 83.6813 129.649 84.3343 129.888 84.8679C130.13 85.3982 130.463 85.8009 130.887 86.076C131.311 86.3478 131.8 86.4837 132.354 86.4837C132.907 86.4837 133.396 86.3478 133.82 86.076C134.245 85.8009 134.576 85.3982 134.815 84.8679C135.057 84.3343 135.178 83.6813 135.178 82.9091ZM144.54 77.8182V88H142.696V77.8182H144.54ZM158.825 77.8182V88H157.184L152.387 81.0646H152.302V88H150.458V77.8182H152.108L156.901 84.7585H156.99V77.8182H158.825ZM164.307 79.3643V77.8182H172.431V79.3643H169.284V88H167.454V79.3643H164.307ZM194.407 82.9091C194.407 84.0062 194.202 84.9458 193.791 85.728C193.383 86.5069 192.826 87.1035 192.121 87.5178C191.418 87.9321 190.621 88.1392 189.729 88.1392C188.838 88.1392 188.039 87.9321 187.333 87.5178C186.63 87.1001 186.073 86.5019 185.662 85.723C185.255 84.9408 185.051 84.0028 185.051 82.9091C185.051 81.812 185.255 80.8741 185.662 80.0952C186.073 79.313 186.63 78.7147 187.333 78.3004C188.039 77.8861 188.838 77.679 189.729 77.679C190.621 77.679 191.418 77.8861 192.121 78.3004C192.826 78.7147 193.383 79.313 193.791 80.0952C194.202 80.8741 194.407 81.812 194.407 82.9091ZM192.553 82.9091C192.553 82.1368 192.432 81.4856 192.19 80.9553C191.951 80.4216 191.62 80.0189 191.196 79.7472C190.772 79.4721 190.283 79.3345 189.729 79.3345C189.176 79.3345 188.687 79.4721 188.263 79.7472C187.838 80.0189 187.505 80.4216 187.263 80.9553C187.025 81.4856 186.905 82.1368 186.905 82.9091C186.905 83.6813 187.025 84.3343 187.263 84.8679C187.505 85.3982 187.838 85.8009 188.263 86.076C188.687 86.3478 189.176 86.4837 189.729 86.4837C190.283 86.4837 190.772 86.3478 191.196 86.076C191.62 85.8009 191.951 85.3982 192.19 84.8679C192.432 84.3343 192.553 83.6813 192.553 82.9091ZM200.071 88V77.8182H206.594V79.3643H201.916V82.1286H206.147V83.6747H201.916V88H200.071ZM225.12 80.6172C225.074 80.183 224.878 79.8449 224.534 79.603C224.192 79.361 223.748 79.2401 223.201 79.2401C222.817 79.2401 222.487 79.2981 222.212 79.4141C221.937 79.5301 221.726 79.6875 221.581 79.8864C221.435 80.0852 221.36 80.3123 221.357 80.5675C221.357 80.7796 221.405 80.9635 221.501 81.1193C221.6 81.2751 221.735 81.4077 221.904 81.517C222.073 81.6231 222.26 81.7126 222.466 81.7855C222.671 81.8584 222.878 81.9197 223.087 81.9695L224.042 82.2081C224.426 82.2976 224.796 82.4186 225.15 82.571C225.508 82.7235 225.828 82.9157 226.11 83.1477C226.395 83.3797 226.62 83.6598 226.786 83.9879C226.952 84.3161 227.034 84.7005 227.034 85.1413C227.034 85.7379 226.882 86.2633 226.577 86.7173C226.272 87.1681 225.831 87.5211 225.255 87.7763C224.681 88.0282 223.987 88.1541 223.172 88.1541C222.379 88.1541 221.692 88.0315 221.108 87.7862C220.528 87.541 220.074 87.183 219.746 86.7124C219.421 86.2417 219.246 85.6683 219.219 84.9922H221.034C221.06 85.3468 221.17 85.6418 221.362 85.8771C221.554 86.1125 221.804 86.2881 222.113 86.4041C222.424 86.5201 222.772 86.5781 223.157 86.5781C223.558 86.5781 223.909 86.5185 224.211 86.3991C224.515 86.2765 224.754 86.1075 224.926 85.892C225.099 85.6733 225.187 85.4181 225.19 85.1264C225.187 84.8613 225.109 84.6425 224.956 84.4702C224.804 84.2945 224.59 84.1487 224.315 84.0327C224.043 83.9134 223.725 83.8073 223.36 83.7145L222.202 83.4162C221.364 83.2008 220.701 82.8743 220.213 82.4368C219.73 81.996 219.488 81.411 219.488 80.6818C219.488 80.0819 219.65 79.5566 219.975 79.1058C220.303 78.6551 220.749 78.3054 221.312 78.0568C221.876 77.8049 222.514 77.679 223.226 77.679C223.949 77.679 224.582 77.8049 225.125 78.0568C225.672 78.3054 226.101 78.6518 226.413 79.0959C226.725 79.5367 226.885 80.0438 226.895 80.6172H225.12ZM233.742 88H231.774L235.358 77.8182H237.635L241.224 88H239.256L236.536 79.9062H236.457L233.742 88ZM233.807 84.0078H239.176V85.4893H233.807V84.0078ZM246.486 88V77.8182H248.33V86.4538H252.814V88H246.486ZM258.335 88V77.8182H264.957V79.3643H260.18V82.1286H264.614V83.6747H260.18V86.4538H264.997V88H258.335Z" fill="#0D9488"/>
</g>
</g>
</g>
<defs>
<linearGradient id="paint0_linear_3_15" x1="0" y1="0" x2="96" y2="96" gradientUnits="userSpaceOnUse">
<stop stop-color="#2DD4BF"/>
<stop offset="1" stop-color="#0D9488"/>
</linearGradient>
<clipPath id="clip0_3_15">
<rect width="337" height="96" fill="white"/>
</clipPath>
<clipPath id="clip1_3_15">
<rect width="337" height="96" fill="white"/>
</clipPath>
<clipPath id="clip2_3_15">
<rect width="223" height="86" fill="white" transform="translate(114 5)"/>
</clipPath>
</defs>
</svg>
